<?xml version="1.0" encoding="UTF-8" standalone="no"?>
<!-- Created with Inkscape (http://www.inkscape.org/) -->

<svg
   xmlns:dc="http://purl.org/dc/elements/1.1/"
   xmlns:cc="http://creativecommons.org/ns#"
   xmlns:rdf="http://www.w3.org/1999/02/22-rdf-syntax-ns#"
   xmlns:svg="http://www.w3.org/2000/svg"
   xmlns="http://www.w3.org/2000/svg"
   xmlns:sodipodi="http://sodipodi.sourceforge.net/DTD/sodipodi-0.dtd"
   xmlns:inkscape="http://www.inkscape.org/namespaces/inkscape"
   width="48"
   height="48"
   id="svg2"
   inkscape:label="Pozadí"
   version="1.1"
   inkscape:version="0.48.5 r10040"
   sodipodi:docname="gpx.svg"
   inkscape:export-filename="/home/klinger/current/projects/devel/my-map/map/image/gpx.png"
   inkscape:export-xdpi="120"
   inkscape:export-ydpi="120">
  <defs
     id="defs3">
    <marker
       inkscape:stockid="TriangleOutS"
       orient="auto"
       refY="0.0"
       refX="0.0"
       id="TriangleOutS"
       style="overflow:visible">
      <path
         id="path4045"
         d="M 5.77,0.0 L -2.88,5.0 L -2.88,-5.0 L 5.77,0.0 z "
         style="fill-rule:evenodd;stroke:#000000;stroke-width:1.0pt"
         transform="scale(0.2)" />
    </marker>
    <marker
       inkscape:stockid="Arrow1Send"
       orient="auto"
       refY="0.0"
       refX="0.0"
       id="Arrow1Send"
       style="overflow:visible;">
      <path
         id="path3912"
         d="M 0.0,0.0 L 5.0,-5.0 L -12.5,0.0 L 5.0,5.0 L 0.0,0.0 z "
         style="fill-rule:evenodd;stroke:#000000;stroke-width:1.0pt;"
         transform="scale(0.2) rotate(180) translate(6,0)" />
    </marker>
    <marker
       inkscape:stockid="Arrow1Mend"
       orient="auto"
       refY="0.0"
       refX="0.0"
       id="Arrow1Mend"
       style="overflow:visible;">
      <path
         id="path3906"
         d="M 0.0,0.0 L 5.0,-5.0 L -12.5,0.0 L 5.0,5.0 L 0.0,0.0 z "
         style="fill-rule:evenodd;stroke:#000000;stroke-width:1.0pt;"
         transform="scale(0.4) rotate(180) translate(10,0)" />
    </marker>
    <marker
       inkscape:stockid="Arrow1Lend"
       orient="auto"
       refY="0.0"
       refX="0.0"
       id="Arrow1Lend"
       style="overflow:visible;">
      <path
         id="path3900"
         d="M 0.0,0.0 L 5.0,-5.0 L -12.5,0.0 L 5.0,5.0 L 0.0,0.0 z "
         style="fill-rule:evenodd;stroke:#000000;stroke-width:1.0pt;"
         transform="scale(0.8) rotate(180) translate(12.5,0)" />
    </marker>
    <marker
       inkscape:stockid="Arrow1Lstart"
       orient="auto"
       refY="0.0"
       refX="0.0"
       id="Arrow1Lstart"
       style="overflow:visible">
      <path
         id="path3897"
         d="M 0.0,0.0 L 5.0,-5.0 L -12.5,0.0 L 5.0,5.0 L 0.0,0.0 z "
         style="fill-rule:evenodd;stroke:#000000;stroke-width:1.0pt"
         transform="scale(0.8) translate(12.5,0)" />
    </marker>
    <filter
       id="filter4008"
       inkscape:label="gauss"
       x="-2.4286128663675299e-17"
       y="-1.0408340855860843e-17"
       width="1"
       height="1">
      <feGaussianBlur
         stdDeviation="0.63493750000000004"
         id="feGaussianBlur4010" />
    </filter>
  </defs>
  <sodipodi:namedview
     id="base"
     pagecolor="#ffffff"
     bordercolor="#666666"
     borderopacity="1.0"
     inkscape:pageopacity="0.0"
     inkscape:pageshadow="2"
     inkscape:zoom="11.2"
     inkscape:cx="37.53125"
     inkscape:cy="19.490886"
     inkscape:document-units="px"
     inkscape:current-layer="layer1"
     showgrid="true"
     showguides="true"
     inkscape:guide-bbox="true"
     inkscape:snap-grids="false"
     inkscape:window-width="1920"
     inkscape:window-height="1027"
     inkscape:window-x="0"
     inkscape:window-y="0"
     inkscape:window-maximized="1">
    <inkscape:grid
       type="xygrid"
       id="grid2984"
       empspacing="4"
       visible="true"
       enabled="true"
       snapvisiblegridlinesonly="true"
       spacingx="2px"
       spacingy="2px" />
  </sodipodi:namedview>
  <metadata
     id="metadata6">
    <rdf:RDF>
      <cc:Work
         rdf:about="">
        <dc:format>image/svg+xml</dc:format>
        <dc:type
           rdf:resource="http://purl.org/dc/dcmitype/StillImage" />
        <dc:title></dc:title>
      </cc:Work>
    </rdf:RDF>
  </metadata>
  <g
     inkscape:label="Vrstva 1"
     inkscape:groupmode="layer"
     id="layer1"
     transform="translate(0,-1004.3622)">
    <text
       xml:space="preserve"
       style="font-size:32px;font-style:italic;font-variant:normal;font-weight:normal;font-stretch:normal;line-height:125%;letter-spacing:0px;word-spacing:0px;fill:#000000;fill-opacity:1;stroke:none;font-family:Liberation Sans;-inkscape-font-specification:Sans Italic"
       x="17.589287"
       y="1018.7908"
       id="text4272"
       sodipodi:linespacing="125%"><tspan
         sodipodi:role="line"
         id="tspan4274"
         x="17.589287"
         y="1018.7908" /></text>
    <g
       style="font-size:48px;font-style:normal;font-variant:normal;font-weight:normal;font-stretch:normal;line-height:125%;letter-spacing:0px;word-spacing:0px;fill:#dddddd;fill-opacity:1;stroke:none;font-family:Andika;-inkscape-font-specification:Andika"
       id="text4355"
       transform="matrix(0.69557034,0.71845801,-0.71845801,0.69557034,746.18809,295.88569)">
      <path
         d="m 9.0153459,1033.7563 c 0.4583242,0 0.8987535,-0.036 1.3212891,-0.1074 0.422516,-0.072 0.812815,-0.1647 1.170898,-0.2793 0.365223,-0.1217 0.691069,-0.2578 0.977539,-0.4082 0.293608,-0.1575 0.533516,-0.3187 0.719727,-0.4834 l 0,-2.0947 -3.6953125,0 0,-2.3418 6.5957035,0 0,5.5645 c -0.343766,0.3509 -0.75913,0.6875 -1.246094,1.0097 -0.486993,0.3151 -1.034844,0.5944 -1.643555,0.8379 -0.608736,0.2363 -1.274751,0.4261 -1.998047,0.5693 -0.716156,0.1433 -1.4788502,0.2149 -2.2880856,0.2149 -1.3391999,0 -2.4921936,-0.1934 -3.4589844,-0.5801 -0.966801,-0.3939 -1.7617221,-0.9381 -2.3847656,-1.6328 -0.623049,-0.7018 -1.0849626,-1.5325 -1.3857422,-2.4922 -0.2936208,-0.9596 -0.4404306,-2.0088 -0.4404297,-3.1474 -9e-7,-1.1817 0.157551,-2.2487 0.4726563,-3.2012 0.3151025,-0.9525 0.791339,-1.7617 1.4287109,-2.4278 0.6445278,-0.6731 1.4501911,-1.1887 2.4169922,-1.5468 0.9739521,-0.3652 2.1162036,-0.5479 3.4267578,-0.5479 0.9524644,0 1.7975153,0.093 2.5351563,0.2793 0.74478,0.1862 1.392891,0.4512 1.944336,0.7949 0.55858,0.3438 1.024074,0.7592 1.396484,1.2461 0.379543,0.4799 0.680324,1.0206 0.902344,1.6221 l -2.921875,0.8809 c -0.128919,-0.3151 -0.300793,-0.6123 -0.515625,-0.8916 -0.214855,-0.2865 -0.48341,-0.5336 -0.805664,-0.7412 -0.315115,-0.2149 -0.68393,-0.3832 -1.106445,-0.5049 -0.415375,-0.1289 -0.8916111,-0.1934 -1.4287113,-0.1934 -0.7877683,0 -1.4681061,0.1253 -2.0410156,0.376 -0.5729227,0.2435 -1.0455785,0.5944 -1.4179688,1.0527 -0.3724006,0.4584 -0.6481165,1.0098 -0.8271484,1.6543 -0.1790406,0.6374 -0.2685588,1.3535 -0.2685547,2.1485 -4.1e-6,0.7877 0.089514,1.511 0.2685547,2.1699 0.1861934,0.6588 0.46549,1.2246 0.8378906,1.6972 0.3795517,0.4727 0.8557882,0.8415 1.428711,1.1065 0.5729094,0.265 1.2496666,0.3974 2.0302734,0.3974"
         style="font-size:22px;font-weight:bold;fill:#dddddd;font-family:Liberation Sans;-inkscape-font-specification:Liberation Sans Bold"
         id="path4360"
         inkscape:connector-curvature="0" />
      <path
         d="m 31.38058,1025.6782 c -1.4e-5,0.6517 -0.111016,1.2819 -0.333008,1.8906 -0.214857,0.6016 -0.547864,1.1351 -0.999023,1.6006 -0.451184,0.4655 -1.0241,0.8379 -1.71875,1.1172 -0.694672,0.2722 -1.518238,0.4082 -2.470703,0.4082 l -3.759766,0 0,5.3281 -3.168945,0 0,-15.1357 6.799805,0 c 0.966787,0 1.804677,0.1182 2.513672,0.3545 0.708972,0.2292 1.296211,0.555 1.761718,0.9775 0.465482,0.4226 0.809232,0.9275 1.03125,1.5147 0.229153,0.5872 0.343736,1.2353 0.34375,1.9443 m -3.190429,0.054 c -1.1e-5,-0.7806 -0.236339,-1.3714 -0.708985,-1.7724 -0.465504,-0.4082 -1.167326,-0.6123 -2.105469,-0.6123 l -3.276367,0 0,4.9091 3.362305,0 c 0.472648,10e-5 0.87727,-0.061 1.213867,-0.1826 0.343741,-0.1217 0.626618,-0.2936 0.848633,-0.5156 0.229156,-0.222 0.39745,-0.487 0.504883,-0.7949 0.107411,-0.3151 0.161122,-0.6589 0.161133,-1.0313"
         style="font-size:22px;font-weight:bold;fill:#dddddd;font-family:Liberation Sans;-inkscape-font-specification:Liberation Sans Bold"
         id="path4362"
         inkscape:connector-curvature="0" />
      <path
         d="m 43.304408,1036.0229 -3.802734,-6.0263 -3.802734,6.0263 -3.351563,0 5.242188,-7.9599 -4.801758,-7.1758 3.351562,0 3.362305,5.3496 3.362305,-5.3496 3.330078,0 -4.597656,7.1758 5.038086,7.9599 -3.330079,0"
         style="font-size:22px;font-weight:bold;fill:#dddddd;font-family:Liberation Sans;-inkscape-font-specification:Liberation Sans Bold"
         id="path4364"
         inkscape:connector-curvature="0" />
    </g>
  </g>
</svg>
